<?xml version="1.0" encoding="UTF-8"?>
<svg width="298px" height="278px" viewBox="0 0 298 278" version="1.1" xmlns="http://www.w3.org/2000/svg" xmlns:xlink="http://www.w3.org/1999/xlink">
    <title>logo-view-container</title>
    <g id="页面-1" stroke="none" stroke-width="1" fill="none" fill-rule="evenodd">
        <g id="logo-view-container" fill="#EB5E00" fill-rule="nonzero">
            <path d="M70.9411765,35 L88.2352941,35 L108,86 L93.1764706,86 L89.0588235,74.5070423 L67.6470588,74.5070423 L63.5294118,86 L52,86 L70.9411765,35 Z M70.9411765,66.6056338 L86.5882353,66.6056338 L79.1764706,45.056338 L70.9411765,66.6056338 Z" id="形状"></path>
            <path d="M242.758621,156.811765 C238.62069,165.423529 234.482759,173.317647 228.689655,178.341176 C236.137931,183.364706 245.241379,186.235294 256,188.388235 C253.517241,190.541176 250.206897,194.847059 248.551724,197 C236.965517,194.847059 227.862069,190.541176 220.413793,184.8 C212.137931,190.541176 203.034483,194.847059 190.62069,197 C189.793103,194.847059 185.655172,190.541176 184,188.388235 C195.586207,186.235294 204.689655,182.647059 212.137931,177.623529 C205.517241,171.164706 200.551724,163.988235 197.241379,156.094118 L184.827586,156.094118 L184.827586,147.482353 L215.448276,147.482353 C214.62069,145.329412 213.793103,141.741176 211.310345,139.588235 L222.896552,136 C224.551724,139.588235 227.034483,143.176471 227.862069,146.047059 L222.068966,147.482353 L252.689655,147.482353 L252.689655,156.094118 L242.758621,156.094118 L242.758621,156.811765 Z M208,156.811765 C210.482759,162.552941 214.62069,168.294118 220.413793,171.882353 C225.37931,167.576471 227.862069,161.835294 230.344828,156.811765 L208,156.811765 Z" id="形状"></path>
            <path d="M234.913649,228.305699 L141.114206,228.305699 L141.114206,121.715026 L63.9164345,121.715026 L0,171.409326 L0,0 L157.715877,0 L157.715877,106.590674 L298,106.590674 L298,278 L234.913649,228.305699 Z M281.398329,244.870466 L281.398329,122.435233 L157.715877,122.435233 L157.715877,213.901554 L240.724234,213.901554 L281.398329,244.870466 Z M17.4317549,138.279793 L58.1058496,106.590674 L141.114206,106.590674 L141.114206,15.1243523 L17.4317549,15.1243523 L17.4317549,138.279793 Z" id="形状"></path>
        </g>
    </g>
</svg>